<mxfile host="Electron" modified="2024-07-16T17:22:26.893Z" agent="Mozilla/5.0 (Macintosh; Intel Mac OS X 10_15_7) AppleWebKit/537.36 (KHTML, like Gecko) draw.io/24.6.4 Chrome/124.0.6367.207 Electron/30.0.6 Safari/537.36" etag="ZHlMaL_6Ks5pjbce2k3b" version="24.6.4" type="device">
  <diagram name="Page-1" id="td9EmYUK8_6bjYb0zAWY">
    <mxGraphModel dx="2312" dy="2278" grid="1" gridSize="10" guides="1" tooltips="1" connect="1" arrows="1" fold="1" page="1" pageScale="1" pageWidth="827" pageHeight="1169" background="#ffffff" math="0" shadow="0">
      <root>
        <mxCell id="0" />
        <mxCell id="1" parent="0" />
        <mxCell id="-PNH958Z9S7Hi60WUiAE-3" value="" style="endArrow=none;html=1;rounded=0;" edge="1" parent="1">
          <mxGeometry width="50" height="50" relative="1" as="geometry">
            <mxPoint x="-640" y="-860" as="sourcePoint" />
            <mxPoint x="-80" y="-860" as="targetPoint" />
          </mxGeometry>
        </mxCell>
        <mxCell id="-PNH958Z9S7Hi60WUiAE-4" value="Base" style="text;html=1;align=center;verticalAlign=middle;whiteSpace=wrap;rounded=0;" vertex="1" parent="1">
          <mxGeometry x="-140" y="-890" width="60" height="30" as="geometry" />
        </mxCell>
        <mxCell id="-PNH958Z9S7Hi60WUiAE-5" value="Prod" style="text;html=1;align=center;verticalAlign=middle;whiteSpace=wrap;rounded=0;" vertex="1" parent="1">
          <mxGeometry x="-140" y="-860" width="60" height="30" as="geometry" />
        </mxCell>
        <mxCell id="-PNH958Z9S7Hi60WUiAE-6" value="Output" style="rounded=1;whiteSpace=wrap;html=1;arcSize=15;" vertex="1" parent="1">
          <mxGeometry x="-250" y="-800" width="120" height="60" as="geometry" />
        </mxCell>
        <mxCell id="-PNH958Z9S7Hi60WUiAE-7" style="edgeStyle=orthogonalEdgeStyle;rounded=0;orthogonalLoop=1;jettySize=auto;html=1;exitX=1;exitY=0.5;exitDx=0;exitDy=0;entryX=0;entryY=0.5;entryDx=0;entryDy=0;" edge="1" parent="1" source="-PNH958Z9S7Hi60WUiAE-8" target="-PNH958Z9S7Hi60WUiAE-6">
          <mxGeometry relative="1" as="geometry">
            <mxPoint x="-260" y="-770.1666666666666" as="targetPoint" />
          </mxGeometry>
        </mxCell>
        <mxCell id="-PNH958Z9S7Hi60WUiAE-8" value="Pipeline" style="rounded=0;whiteSpace=wrap;html=1;" vertex="1" parent="1">
          <mxGeometry x="-420" y="-800" width="120" height="60" as="geometry" />
        </mxCell>
        <mxCell id="-PNH958Z9S7Hi60WUiAE-9" value="Input" style="rounded=1;whiteSpace=wrap;html=1;arcSize=15;" vertex="1" parent="1">
          <mxGeometry x="-610" y="-820" width="120" height="60" as="geometry" />
        </mxCell>
        <mxCell id="-PNH958Z9S7Hi60WUiAE-10" value="Input" style="rounded=1;whiteSpace=wrap;html=1;arcSize=15;" vertex="1" parent="1">
          <mxGeometry x="-600" y="-810" width="120" height="60" as="geometry" />
        </mxCell>
        <mxCell id="-PNH958Z9S7Hi60WUiAE-11" style="edgeStyle=orthogonalEdgeStyle;rounded=0;orthogonalLoop=1;jettySize=auto;html=1;exitX=1;exitY=0.5;exitDx=0;exitDy=0;" edge="1" parent="1" source="-PNH958Z9S7Hi60WUiAE-12" target="-PNH958Z9S7Hi60WUiAE-8">
          <mxGeometry relative="1" as="geometry" />
        </mxCell>
        <mxCell id="-PNH958Z9S7Hi60WUiAE-12" value="Input" style="rounded=1;whiteSpace=wrap;html=1;arcSize=15;" vertex="1" parent="1">
          <mxGeometry x="-590" y="-800" width="120" height="60" as="geometry" />
        </mxCell>
        <mxCell id="-PNH958Z9S7Hi60WUiAE-13" value="Dataset" style="rounded=1;whiteSpace=wrap;html=1;arcSize=15;" vertex="1" parent="1">
          <mxGeometry x="-400" y="-1160" width="120" height="60" as="geometry" />
        </mxCell>
        <mxCell id="-PNH958Z9S7Hi60WUiAE-14" value="Processing" style="rounded=0;whiteSpace=wrap;html=1;" vertex="1" parent="1">
          <mxGeometry x="-250" y="-1160" width="120" height="60" as="geometry" />
        </mxCell>
        <mxCell id="-PNH958Z9S7Hi60WUiAE-15" style="edgeStyle=orthogonalEdgeStyle;rounded=0;orthogonalLoop=1;jettySize=auto;html=1;exitX=1;exitY=0.5;exitDx=0;exitDy=0;entryX=0.5;entryY=0;entryDx=0;entryDy=0;dashed=1;" edge="1" parent="1" source="-PNH958Z9S7Hi60WUiAE-16" target="-PNH958Z9S7Hi60WUiAE-9">
          <mxGeometry relative="1" as="geometry">
            <Array as="points">
              <mxPoint x="-200" y="-970" />
              <mxPoint x="-200" y="-880" />
              <mxPoint x="-550" y="-880" />
            </Array>
          </mxGeometry>
        </mxCell>
        <mxCell id="-PNH958Z9S7Hi60WUiAE-16" value="Fabricate data" style="rounded=0;whiteSpace=wrap;html=1;" vertex="1" parent="1">
          <mxGeometry x="-420" y="-1000" width="120" height="60" as="geometry" />
        </mxCell>
        <mxCell id="-PNH958Z9S7Hi60WUiAE-17" style="edgeStyle=orthogonalEdgeStyle;rounded=0;orthogonalLoop=1;jettySize=auto;html=1;exitX=1;exitY=0.5;exitDx=0;exitDy=0;entryX=0;entryY=0.5;entryDx=0;entryDy=0;" edge="1" parent="1" source="-PNH958Z9S7Hi60WUiAE-18" target="-PNH958Z9S7Hi60WUiAE-16">
          <mxGeometry relative="1" as="geometry" />
        </mxCell>
        <mxCell id="-PNH958Z9S7Hi60WUiAE-18" value="Receipe" style="rounded=1;whiteSpace=wrap;html=1;arcSize=15;" vertex="1" parent="1">
          <mxGeometry x="-600" y="-1000" width="120" height="60" as="geometry" />
        </mxCell>
        <mxCell id="-PNH958Z9S7Hi60WUiAE-19" value="Text" style="text;html=1;align=center;verticalAlign=middle;whiteSpace=wrap;rounded=0;" vertex="1" parent="1">
          <mxGeometry x="-390" y="-910" width="60" height="30" as="geometry" />
        </mxCell>
      </root>
    </mxGraphModel>
  </diagram>
</mxfile>
